<?xml version="1.0" standalone="no"?>
<!DOCTYPE svg PUBLIC "-//W3C//DTD SVG 20010904//EN"
 "http://www.w3.org/TR/2001/REC-SVG-20010904/DTD/svg10.dtd">
<svg version="1.0" xmlns="http://www.w3.org/2000/svg"
 width="180" height="60" viewBox="0 0 1800.000000 600.000000"
 preserveAspectRatio="xMidYMid meet">

<g transform="translate(0.000000,600.000000) scale(0.100000,-0.100000)"
fill="#000000" stroke="none">
<path d="M2723 5601 c-108 -5 -146 -10 -157 -21 -12 -12 -19 -72 -30 -265 -8
-137 -15 -295 -15 -350 -1 -55 -12 -302 -26 -550 -14 -247 -25 -466 -25 -486
0 -30 21 -62 146 -225 80 -104 155 -200 167 -213 l22 -24 194 6 c132 5 198 10
208 19 9 7 85 102 169 212 133 172 154 205 154 235 0 20 -11 239 -25 486 -14
248 -25 495 -26 550 0 55 -7 213 -15 350 -13 232 -16 251 -35 268 -19 15 -47
17 -293 15 -149 -1 -335 -4 -413 -7z m600 -163 c4 -24 9 -109 13 -190 l7 -148
-205 0 c-113 0 -267 -3 -343 -7 l-138 -6 7 149 c4 82 9 168 12 191 l6 43 232
3 c127 1 270 3 317 5 l87 2 5 -42z m41 -530 c5 -52 40 -708 49 -910 l2 -57
-134 -176 c-127 -165 -136 -175 -168 -175 l-33 0 0 684 0 685 43 4 c23 2 86 4
139 5 l96 2 6 -62z m-436 -635 l-3 -688 -38 0 c-37 0 -40 3 -172 175 l-134
175 4 50 c3 28 14 230 25 450 11 220 23 428 26 463 l6 62 144 0 144 0 -2 -687z"/>
<path d="M13055 4989 c-489 -66 -836 -361 -970 -824 -145 -502 -29 -1131 273
-1466 108 -120 268 -222 428 -272 239 -75 587 -76 804 -2 315 107 533 337 649
683 17 51 31 97 31 101 0 8 -302 91 -328 91 -7 0 -12 -8 -12 -17 0 -10 -15
-62 -34 -115 -71 -206 -191 -352 -358 -432 -131 -62 -217 -79 -381 -74 -116 4
-144 8 -227 37 -280 95 -438 279 -515 603 -81 341 -49 729 81 996 40 82 60
110 138 187 146 145 300 210 526 222 350 18 589 -133 706 -443 14 -38 29 -72
32 -76 6 -5 270 50 320 67 9 3 4 26 -18 86 -121 332 -370 553 -708 630 -102
23 -333 33 -437 18z"/>
<path d="M6500 3686 l0 -1276 165 0 165 0 0 566 0 566 293 -4 c283 -3 294 -4
347 -27 112 -50 182 -111 291 -253 68 -89 261 -380 434 -656 l120 -191 213 -1
c168 0 212 3 206 13 -93 150 -488 758 -522 802 -127 165 -215 247 -332 309
l-60 32 97 21 c398 84 613 322 613 678 0 123 -21 213 -76 324 -79 159 -203
267 -364 315 -147 44 -215 48 -917 53 l-673 5 0 -1276z m1340 969 c98 -21 176
-60 233 -117 185 -185 127 -527 -108 -637 -127 -60 -268 -73 -755 -69 l-375 3
-3 418 -2 417 469 0 c379 0 483 -3 541 -15z"/>
<path d="M9100 3685 l0 -1275 160 0 160 0 0 1077 c0 592 3 1074 6 1070 4 -3
170 -487 369 -1074 l363 -1068 153 0 154 0 365 1052 365 1051 3 -1054 2 -1054
165 0 165 0 -2 1273 -3 1272 -219 3 c-121 1 -223 -1 -228 -6 -9 -9 -712 -2050
-729 -2117 -6 -25 -14 -45 -18 -45 -3 1 -168 488 -366 1083 l-360 1082 -252 3
-253 2 0 -1275z"/>
<path d="M14480 4954 c0 -3 221 -577 492 -1275 l491 -1269 173 0 c128 0 173 3
177 13 90 224 987 2522 987 2528 0 5 -75 9 -168 9 l-169 0 -352 -947 c-194
-522 -380 -1031 -414 -1132 l-61 -185 -13 45 c-57 182 -176 525 -457 1309
l-324 905 -181 3 c-100 1 -181 0 -181 -4z"/>
<path d="M663 4193 c-21 -19 -263 -751 -263 -795 0 -14 8 -32 18 -40 19 -16
499 -198 524 -198 8 0 235 -84 504 -186 269 -103 500 -189 514 -191 32 -5 499
151 521 175 18 18 129 341 129 373 0 10 -31 62 -68 116 -38 54 -105 150 -148
213 -44 63 -91 120 -104 127 -14 6 -248 69 -520 139 -272 69 -515 134 -540
144 -55 22 -499 140 -527 140 -12 0 -30 -8 -40 -17z m271 -178 c94 -25 171
-47 172 -48 8 -7 -202 -647 -212 -647 -10 0 -334 119 -342 125 -3 3 186 593
195 608 6 10 3 11 187 -38z m814 -202 l492 -128 126 -183 c112 -163 125 -186
119 -213 -4 -17 -12 -32 -19 -35 -9 -4 -1293 411 -1304 421 -6 5 79 265 86
265 4 0 229 -57 500 -127z m105 -528 c542 -178 568 -188 561 -208 -3 -12 -11
-27 -18 -33 -6 -7 -104 -42 -217 -80 l-206 -68 -472 179 c-259 98 -471 183
-471 188 0 5 18 67 40 137 l41 128 87 -28 c48 -16 343 -113 655 -215z"/>
<path d="M5050 4148 c-124 -33 -245 -68 -270 -78 -25 -10 -268 -75 -540 -144
-272 -70 -506 -133 -520 -139 -13 -7 -60 -64 -104 -127 -43 -63 -110 -159
-148 -213 -37 -54 -68 -106 -68 -116 0 -32 111 -355 129 -373 22 -24 489 -180
521 -175 14 2 245 88 514 191 269 102 496 186 504 186 25 0 505 182 525 198 9
8 17 26 17 40 0 44 -242 776 -263 795 -10 9 -31 17 -46 16 -14 0 -127 -28
-251 -61z m312 -393 c54 -165 98 -302 98 -305 0 -6 -330 -130 -345 -130 -9 0
-218 640 -211 647 6 7 333 92 345 90 10 -1 47 -102 113 -302z m-552 54 c23
-72 40 -132 38 -134 -11 -10 -1295 -425 -1304 -421 -7 3 -15 18 -19 35 -6 27
7 50 119 213 l126 183 482 126 c266 70 491 127 500 128 13 1 26 -27 58 -130z
m129 -408 c23 -71 41 -133 41 -138 0 -5 -212 -90 -471 -188 l-472 -179 -211
70 c-189 63 -212 73 -224 98 -8 15 -11 30 -9 33 3 3 297 101 654 218 356 118
649 214 650 214 1 1 20 -57 42 -128z"/>
<path d="M2325 2660 c-104 -32 -208 -63 -230 -69 -23 -6 -49 -18 -58 -28 -10
-10 -139 -207 -287 -438 -149 -231 -286 -440 -306 -465 -20 -25 -99 -141 -175
-259 -114 -174 -139 -220 -137 -244 3 -27 37 -55 336 -274 209 -152 342 -243
357 -243 12 0 32 8 43 18 28 24 347 414 354 432 3 8 159 204 347 434 l341 419
0 56 c0 31 -5 150 -10 266 -12 246 10 206 -195 354 -95 69 -148 101 -165 100
-14 -1 -110 -27 -215 -59z m244 -81 l24 -20 -20 -27 c-11 -15 -174 -241 -363
-502 -189 -261 -361 -499 -382 -527 l-38 -52 -113 80 c-61 45 -111 86 -111 92
1 7 123 201 272 432 l271 420 203 62 c112 34 210 62 218 62 8 0 26 -9 39 -20z
m183 -132 l27 -22 9 -220 c8 -173 7 -223 -2 -235 -14 -16 -628 -773 -632 -778
-5 -8 -234 164 -231 174 3 13 790 1103 797 1103 3 0 17 -10 32 -22z m-969
-1156 c180 -129 267 -198 263 -207 -9 -24 -229 -285 -237 -282 -17 6 -518 373
-519 380 0 4 46 77 101 163 68 105 105 153 113 147 6 -5 132 -95 279 -201z"/>
<path d="M3305 2619 c-205 -148 -183 -108 -195 -354 -5 -116 -10 -235 -10
-266 l0 -56 341 -419 c188 -230 344 -426 347 -434 7 -18 326 -408 354 -432 11
-10 31 -18 43 -18 15 0 148 91 357 243 299 219 333 247 336 274 2 24 -23 70
-136 244 -77 118 -153 230 -169 249 -31 36 -568 865 -578 892 -4 9 -21 23 -38
31 -38 19 -469 147 -495 147 -9 0 -80 -45 -157 -101z m386 -81 l208 -61 277
-429 c152 -236 275 -431 273 -433 -2 -2 -53 -39 -114 -83 -102 -75 -111 -79
-126 -64 -9 10 -182 247 -384 527 -203 281 -377 522 -388 537 l-20 27 24 20
c13 11 28 20 33 21 5 0 103 -28 217 -62z m-1 -615 c217 -301 396 -552 397
-557 3 -10 -226 -182 -231 -174 -4 5 -618 762 -632 778 -9 12 -10 62 -2 235
l9 220 27 22 c15 12 29 22 32 22 3 0 183 -246 400 -546z m934 -586 c53 -81 96
-151 96 -155 -1 -7 -502 -374 -519 -380 -8 -3 -228 258 -237 282 -6 15 547
420 558 408 3 -4 49 -73 102 -155z"/>
<path d="M10346 1985 c-29 -27 -36 -86 -13 -116 52 -68 160 -42 174 43 5 32 1
41 -25 68 -40 39 -96 42 -136 5z"/>
<path d="M15351 1946 c-84 -28 -130 -98 -131 -198 l0 -58 -55 0 -55 0 0 -55 0
-55 55 0 55 0 0 -200 0 -200 80 0 80 0 0 200 0 200 79 0 c87 0 83 -3 96 73 l6
37 -91 0 -90 0 0 50 c0 41 5 56 26 77 23 23 31 25 87 21 34 -3 70 -8 79 -12
13 -6 20 0 31 26 30 73 30 75 -5 88 -53 18 -197 22 -247 6z"/>
<path d="M13220 1885 l0 -55 80 0 80 0 0 -263 c0 -253 1 -264 23 -307 12 -24
34 -53 49 -64 46 -33 209 -35 253 -2 17 12 17 15 0 65 -17 44 -22 50 -39 44
-32 -12 -92 -8 -110 6 -14 12 -16 51 -16 322 l0 309 -160 0 -160 0 0 -55z"/>
<path d="M5901 1548 c-58 -189 -106 -349 -109 -356 -3 -10 15 -12 84 -10 l89
3 16 66 c9 36 19 71 23 78 5 7 43 11 106 11 l99 0 10 -37 c5 -21 13 -56 18
-78 l9 -40 91 -3 91 -3 -19 63 c-10 35 -59 194 -107 353 l-89 290 -104 3 -104
3 -104 -343z m243 65 c20 -78 36 -144 36 -147 0 -4 -34 -6 -76 -6 -67 0 -75 2
-70 18 3 9 19 77 37 150 17 73 32 132 34 130 2 -2 20 -67 39 -145z"/>
<path d="M12630 1535 l0 -355 85 0 85 0 0 119 0 118 93 5 c129 7 198 42 239
122 47 92 32 206 -36 272 -62 59 -125 74 -314 74 l-152 0 0 -355z m313 215
c43 -34 53 -119 22 -170 -12 -20 -72 -40 -120 -40 l-45 0 0 115 0 115 59 0
c44 0 65 -5 84 -20z"/>
<path d="M8480 1851 l-45 -6 -3 -57 -3 -58 -54 0 -55 0 0 -55 0 -55 54 0 53 0
5 -158 c4 -144 7 -162 29 -203 33 -61 93 -90 184 -90 64 0 159 23 170 41 3 5
-6 31 -19 59 l-25 49 -43 -15 c-44 -15 -91 -12 -115 8 -10 9 -13 48 -13 160
l0 149 80 0 c69 0 80 2 80 18 0 9 3 34 6 55 l7 37 -87 0 -86 0 0 65 0 65 -37
-2 c-21 0 -58 -4 -83 -7z"/>
<path d="M9710 1851 l-45 -6 -3 -57 -3 -58 -54 0 -55 0 0 -55 0 -55 54 0 53 0
5 -159 c5 -143 8 -163 29 -202 33 -61 94 -90 184 -90 63 0 159 23 170 41 3 5
-5 30 -17 55 -22 44 -24 46 -53 39 -16 -4 -50 -8 -74 -8 -66 -1 -71 12 -71
181 l0 143 80 0 c69 0 80 2 80 18 0 9 3 34 6 55 l7 37 -87 0 -86 0 0 65 0 65
-37 -2 c-21 0 -58 -4 -83 -7z"/>
<path d="M14633 1853 l-43 -4 0 -60 0 -59 -60 0 -60 0 0 -55 0 -54 58 -3 57
-3 5 -165 c5 -150 7 -168 28 -202 33 -52 91 -78 178 -78 66 0 158 22 169 40 3
5 -5 30 -17 55 -22 44 -24 46 -53 39 -16 -4 -50 -8 -74 -8 -66 -1 -71 12 -71
181 l0 143 79 0 79 0 6 31 c15 79 15 79 -79 79 l-85 0 0 65 0 65 -37 -2 c-21
-1 -57 -3 -80 -5z"/>
<path d="M6691 1705 l-52 -34 -6 29 c-5 30 -6 30 -74 30 l-69 0 0 -275 0 -275
80 0 80 0 0 194 0 194 31 27 c24 20 41 25 68 23 47 -4 48 -12 50 -250 l1 -188
81 0 80 0 -3 233 c-3 206 -5 235 -22 263 -28 46 -65 64 -134 64 -52 0 -67 -5
-111 -35z"/>
<path d="M7335 1724 c-16 -8 -39 -24 -51 -35 -27 -25 -32 -24 -36 9 -3 26 -5
27 -75 30 l-73 3 0 -276 0 -275 80 0 80 0 0 191 0 191 31 29 c33 31 85 39 107
17 9 -9 12 -72 12 -220 l0 -208 80 0 80 0 0 230 c0 256 -4 274 -63 310 -40 25
-129 27 -172 4z"/>
<path d="M7832 1719 c-97 -48 -148 -153 -140 -287 10 -174 100 -263 262 -263
84 0 126 14 178 60 57 50 82 119 82 226 -1 136 -44 217 -138 261 -69 32 -182
34 -244 3z m192 -132 c18 -25 21 -42 21 -132 0 -89 -3 -107 -21 -131 -40 -55
-108 -51 -144 8 -16 26 -20 51 -20 115 0 131 26 176 98 171 36 -2 49 -9 66
-31z"/>
<path d="M9021 1724 c-30 -8 -57 -16 -59 -19 -2 -2 4 -27 13 -55 16 -48 19
-51 44 -45 55 15 127 21 161 14 39 -8 70 -41 70 -74 0 -21 -5 -23 -94 -27
-142 -8 -210 -47 -237 -138 -22 -74 14 -157 83 -192 70 -37 198 -20 254 33 18
17 22 18 27 5 7 -18 78 -56 106 -56 14 0 24 13 36 50 15 45 15 51 1 66 -13 12
-16 40 -16 139 0 160 -13 221 -55 260 -18 17 -50 36 -72 43 -54 16 -195 14
-262 -4z m227 -346 c-3 -47 -7 -55 -37 -75 -19 -13 -47 -23 -62 -23 -62 0 -92
76 -46 117 26 24 45 30 105 32 l43 1 -3 -52z"/>
<path d="M10920 1724 c-46 -20 -96 -69 -123 -119 -30 -57 -36 -203 -12 -276
22 -65 84 -130 141 -147 73 -21 173 -16 232 14 97 48 139 141 130 290 -7 120
-52 193 -143 235 -50 23 -174 25 -225 3z m155 -110 c8 -4 23 -21 32 -38 24
-43 23 -199 0 -242 -33 -63 -121 -63 -155 0 -23 44 -23 198 1 243 9 17 22 33
29 36 19 8 74 8 93 1z"/>
<path d="M11612 1706 l-51 -34 -6 29 c-6 29 -8 29 -76 29 l-69 0 0 -275 0
-275 80 0 80 0 0 194 0 194 31 26 c42 36 96 36 109 0 6 -14 10 -113 10 -220
l0 -194 80 0 80 0 0 223 c0 196 -3 227 -19 264 -25 53 -62 73 -139 73 -52 0
-67 -5 -110 -34z"/>
<path d="M13940 1723 c-30 -8 -57 -16 -59 -18 -2 -3 27 -92 35 -103 1 -2 21 2
44 8 22 6 68 11 102 11 49 1 64 -4 84 -22 14 -13 24 -34 24 -49 l0 -27 -93 -5
c-161 -9 -242 -70 -241 -183 2 -105 68 -165 182 -165 67 0 123 18 159 51 21
21 21 21 32 1 12 -23 93 -57 114 -49 8 3 20 26 27 51 11 41 11 49 -4 64 -13
15 -16 43 -16 153 0 74 -5 152 -11 174 -14 50 -64 100 -114 114 -55 15 -199
12 -265 -6z m230 -341 c0 -59 -28 -91 -87 -99 -30 -4 -43 0 -60 17 -59 55 0
129 105 130 l42 0 0 -48z"/>
<path d="M15835 1721 c-99 -45 -150 -148 -143 -290 3 -74 9 -95 35 -142 52
-93 153 -136 277 -117 67 10 115 37 153 87 41 53 56 107 55 201 -1 180 -94
280 -261 280 -52 0 -89 -6 -116 -19z m174 -120 c52 -52 54 -236 4 -292 -20
-24 -63 -29 -99 -14 -41 17 -58 65 -57 165 1 117 26 160 94 160 25 0 46 -7 58
-19z"/>
<path d="M16665 1724 c-42 -22 -64 -44 -85 -84 l-18 -35 -12 45 c-6 25 -13 53
-16 63 -5 15 -18 17 -100 17 l-94 0 0 -55 0 -55 35 0 35 0 0 -165 0 -165 -35
0 -35 0 0 -55 0 -55 170 0 170 0 0 55 0 55 -56 0 -56 0 4 94 c3 86 6 98 33
137 17 24 45 52 63 62 l32 19 0 -51 0 -51 53 0 53 0 12 89 c16 116 15 138 -4
145 -30 12 -119 6 -149 -10z"/>
<path d="M17066 1709 l-35 -30 -7 25 c-6 24 -10 26 -65 26 l-59 0 0 -275 0
-275 70 0 70 0 2 207 3 207 27 15 c49 28 53 13 56 -219 l3 -210 55 0 54 0 0
205 0 205 25 16 c52 34 55 24 55 -211 l0 -215 70 0 70 0 0 235 c0 301 -8 325
-112 325 -30 0 -55 -8 -81 -26 l-38 -25 -20 25 c-31 39 -96 37 -143 -5z"/>
<path d="M10200 1675 l0 -55 75 0 75 0 0 -165 0 -165 -81 0 -80 0 3 -52 3 -53
228 -3 227 -2 0 55 0 55 -70 0 -70 0 0 220 0 220 -155 0 -155 0 0 -55z"/>
</g>
</svg>
